<svg width="480" height="300" viewBox="0 0 480 300" xmlns="http://www.w3.org/2000/svg">
  <defs>
    <radialGradient id="fw-glow" cx="50%" cy="50%" r="60%">
      <stop offset="0%" stop-color="#11213a" />
      <stop offset="100%" stop-color="#05070f" />
    </radialGradient>
    <linearGradient id="fw-streak" x1="0%" y1="0%" x2="100%" y2="100%">
      <stop offset="0%" stop-color="#ffeb3b" stop-opacity="0.95" />
      <stop offset="100%" stop-color="#3cb9ff" stop-opacity="0.6" />
    </linearGradient>
  </defs>
  <rect width="480" height="300" fill="#060911" />
  <rect width="480" height="300" fill="url(#fw-glow)" />
  <g stroke="url(#fw-streak)" stroke-width="3" stroke-linecap="round" opacity="0.85">
    <line x1="240" y1="150" x2="240" y2="40" />
    <line x1="240" y1="150" x2="340" y2="70" />
    <line x1="240" y1="150" x2="360" y2="160" />
    <line x1="240" y1="150" x2="250" y2="260" />
    <line x1="240" y1="150" x2="140" y2="230" />
    <line x1="240" y1="150" x2="110" y2="140" />
    <line x1="240" y1="150" x2="170" y2="60" />
  </g>
  <g fill="#ffd95a" opacity="0.9">
    <circle cx="240" cy="150" r="8" />
    <circle cx="170" cy="60" r="4" />
    <circle cx="340" cy="70" r="4" />
    <circle cx="140" cy="230" r="4" />
    <circle cx="360" cy="160" r="4" />
  </g>
  <g stroke="#58f5ff" stroke-width="1.2" opacity="0.7">
    <circle cx="240" cy="150" r="55" fill="none" />
    <circle cx="240" cy="150" r="96" fill="none" />
  </g>
</svg>
