<svg width="480" height="300" viewBox="0 0 480 300" xmlns="http://www.w3.org/2000/svg">
  <defs>
    <linearGradient id="nt-bg" x1="0%" y1="0%" x2="100%" y2="100%">
      <stop offset="0%" stop-color="#0a0c18" />
      <stop offset="100%" stop-color="#03050b" />
    </linearGradient>
    <linearGradient id="nt-thread" x1="0%" y1="0%" x2="100%" y2="0%">
      <stop offset="0%" stop-color="#7c5bff" />
      <stop offset="50%" stop-color="#44e7ff" />
      <stop offset="100%" stop-color="#f5ff1a" />
    </linearGradient>
  </defs>
  <rect width="480" height="300" fill="url(#nt-bg)" />
  <g fill="none" stroke="url(#nt-thread)" stroke-width="2.4" stroke-linecap="round" opacity="0.9">
    <path d="M30 210 C120 120 200 250 280 170 C340 110 400 230 450 150" />
    <path d="M40 160 C110 90 210 180 270 120 C340 60 400 180 470 100" opacity="0.65" />
    <path d="M0 240 C100 140 180 220 260 160 C330 110 380 210 460 150" opacity="0.45" />
  </g>
  <g fill="#44e7ff" opacity="0.5">
    <circle cx="180" cy="160" r="5" />
    <circle cx="280" cy="140" r="5" />
    <circle cx="360" cy="200" r="6" />
  </g>
</svg>
