<svg width="480" height="300" viewBox="0 0 480 300" xmlns="http://www.w3.org/2000/svg">
  <defs>
    <linearGradient id="rain-bg" x1="0%" y1="0%" x2="0%" y2="100%">
      <stop offset="0%" stop-color="#0a0d14" />
      <stop offset="100%" stop-color="#05060a" />
    </linearGradient>
    <linearGradient id="rain-streak" x1="0%" y1="0%" x2="0%" y2="100%">
      <stop offset="0%" stop-color="#7dd3ff" stop-opacity="0.9" />
      <stop offset="100%" stop-color="#26b6ff" stop-opacity="0.35" />
    </linearGradient>
  </defs>
  <rect width="480" height="300" fill="url(#rain-bg)" />
  <g stroke="url(#rain-streak)" stroke-width="2" stroke-linecap="round">
    <line x1="60" y1="-10" x2="40" y2="80" />
    <line x1="140" y1="-20" x2="120" y2="90" />
    <line x1="220" y1="-30" x2="200" y2="100" />
    <line x1="300" y1="-10" x2="280" y2="110" />
    <line x1="380" y1="-25" x2="360" y2="95" />
    <line x1="460" y1="-15" x2="440" y2="105" />
  </g>
  <g stroke="#25d7ff" stroke-opacity="0.35" stroke-width="1.2">
    <line x1="100" y1="130" x2="110" y2="220" />
    <line x1="200" y1="120" x2="210" y2="230" />
    <line x1="300" y1="140" x2="310" y2="230" />
    <line x1="400" y1="120" x2="410" y2="220" />
  </g>
  <g fill="#a1f5ff" opacity="0.7">
    <ellipse cx="210" cy="250" rx="28" ry="6" />
    <ellipse cx="330" cy="240" rx="22" ry="5" />
  </g>
</svg>
